<svg width="131" height="130" viewBox="0 0 131 130" fill="none" xmlns="http://www.w3.org/2000/svg">
<path d="M48.2214 21.3592C48.997 20.6098 50.2269 20.6102 51.0019 21.3601L109.972 78.4206C110.784 79.2067 110.784 80.5092 109.972 81.2952L81.7769 108.577C81.0013 109.328 79.7702 109.328 78.9949 108.577L20.0256 51.4781C19.2134 50.6916 19.214 49.3886 20.0271 48.603L48.2214 21.3592ZM49.6122 8.67374C47.4535 8.67499 45.3838 9.50574 43.8581 10.9833L9.24843 44.472C8.48681 45.2042 7.88237 46.0749 7.4699 47.0339C7.05743 47.993 6.84509 49.0216 6.84509 50.0604C6.84509 51.0992 7.05743 52.1277 7.4699 53.0868C7.88237 54.0459 8.48681 54.9166 9.24843 55.6487L74.6317 118.914C76.1906 120.369 78.2631 121.194 80.4283 121.224C82.5869 121.223 84.6566 120.392 86.1824 118.914L120.749 85.4256C121.516 84.6963 122.125 83.8266 122.541 82.8671C122.957 81.9077 123.171 80.8777 123.171 79.8373C123.171 78.7969 122.957 77.767 122.541 76.8075C122.125 75.848 121.516 74.9783 120.749 74.249L55.4088 10.9833C53.8831 9.50574 51.8134 8.67499 49.6548 8.67374H49.6122Z" fill="black"/>
<path d="M59.3119 129.192C60.1308 128.003 52.9883 116.222 49.5686 110.668C48.8029 109.424 46.9933 109.388 46.1752 110.598C44.3072 113.36 42.6351 115.833 42.6351 115.833L38.0868 122.559L35.4145 126.743C34.5833 128.045 35.4685 129.752 37.0121 129.798C43.8661 130.005 58.5387 130.314 59.3119 129.192Z" fill="#FFE436"/>
<path d="M42.6351 115.833C33.7372 111.752 24.0014 104.614 18.3326 96.8236C13.0222 89.5256 9.62445 81.0984 8.41826 72.2674C8.27944 71.2512 7.42409 70.4745 6.39838 70.4745H2.24855C1.07419 70.4745 0.149727 71.4825 0.295245 72.6478C2.15869 87.5703 9.46926 101.388 20.9488 111.585C26.0702 116.135 31.8628 119.823 38.0868 122.559L42.6351 115.833Z" fill="#FFE436"/>
<path d="M59.3119 129.192C60.1308 128.003 52.9883 116.222 49.5686 110.668C48.8029 109.424 46.9933 109.388 46.1752 110.598C44.3072 113.36 42.6351 115.833 42.6351 115.833L38.0868 122.559L35.4145 126.743C34.5833 128.045 35.4685 129.752 37.0121 129.798C43.8661 130.005 58.5387 130.314 59.3119 129.192Z" fill="#FFE436"/>
<path d="M70.8144 0.808335C69.9956 1.99687 77.1381 13.7778 80.5578 19.3325C81.3234 20.5762 83.1331 20.6122 83.9512 19.4024C85.8192 16.6399 87.4913 14.1672 87.4913 14.1672L92.0395 7.44125L94.7119 3.25671C95.5431 1.95519 94.6579 0.248344 93.1143 0.201721C86.2603 -0.00530424 71.5876 -0.313874 70.8144 0.808335Z" fill="#FFE436"/>
<path d="M87.4913 14.1672C96.3892 18.2479 106.125 25.3858 111.794 33.1764C117.104 40.4744 120.502 48.9016 121.708 57.7326C121.847 58.7488 122.702 59.5255 123.728 59.5255H127.878C129.052 59.5255 129.977 58.5175 129.831 57.3522C127.968 42.4297 120.657 28.6119 109.178 18.4145C104.056 13.8652 98.2636 10.1773 92.0395 7.44125L87.4913 14.1672Z" fill="#FFE436"/>
<path d="M70.8144 0.808335C69.9956 1.99687 77.1381 13.7778 80.5578 19.3325C81.3234 20.5762 83.1331 20.6122 83.9512 19.4024C85.8192 16.6399 87.4913 14.1672 87.4913 14.1672L92.0395 7.44125L94.7119 3.25671C95.5431 1.95519 94.6579 0.248344 93.1143 0.201721C86.2603 -0.00530424 71.5876 -0.313874 70.8144 0.808335Z" fill="#FFE436"/>
</svg>
